<?xml version="1.0" standalone="no"?>
<!DOCTYPE svg PUBLIC "-//W3C//DTD SVG 20010904//EN"
 "http://www.w3.org/TR/2001/REC-SVG-20010904/DTD/svg10.dtd">
<svg version="1.0" xmlns="http://www.w3.org/2000/svg"
 width="500.000000pt" height="500.000000pt" viewBox="0 0 500.000000 500.000000"
 preserveAspectRatio="xMidYMid meet">

<g transform="translate(0.000000,500.000000) scale(0.100000,-0.100000)"
fill="#000000" stroke="none">
<path d="M2375 4733 c-834 -51 -1561 -533 -1925 -1278 -38 -77 -86 -192 -108
-255 -183 -531 -158 -1163 67 -1663 l31 -68 160 141 c88 78 160 146 160 152 0
6 -11 44 -25 83 -33 98 -71 253 -86 355 -20 136 -15 423 10 563 85 480 325
878 706 1172 518 400 1225 496 1828 249 62 -25 117 -46 122 -46 6 1 66 24 135
52 69 28 177 67 240 86 110 34 128 41 119 47 -356 242 -726 373 -1153 407
-123 10 -170 10 -281 3z"/>
<path d="M4138 4149 c-342 -50 -757 -207 -1048 -396 -256 -167 -591 -444 -822
-681 -54 -54 -98 -97 -98 -95 0 19 90 171 130 221 28 34 50 64 50 66 0 10
-169 -30 -273 -65 -239 -79 -430 -203 -547 -354 -97 -127 -170 -279 -215 -450
-37 -144 -37 -143 38 -101 90 50 166 69 252 64 109 -7 113 -13 59 -78 -49 -59
-120 -195 -130 -247 -6 -33 -6 -33 27 -25 59 13 172 8 203 -10 l30 -16 -31
-16 c-34 -17 -103 -92 -103 -112 0 -7 21 -23 47 -36 69 -34 158 -121 189 -184
14 -30 30 -54 34 -54 16 0 98 81 113 112 l16 33 13 -30 c8 -19 13 -71 13 -138
l0 -108 25 6 c69 17 211 97 272 153 15 14 31 23 34 19 3 -3 8 -43 11 -89 7
-99 -10 -169 -63 -267 l-35 -64 43 6 c67 9 251 72 339 116 161 81 261 162 360
294 82 108 180 312 222 462 50 177 55 225 16 178 -26 -30 -115 -91 -190 -128
l-74 -37 182 183 c420 424 637 739 813 1179 91 229 190 580 190 676 0 26 -1
27 -92 13z m-198 -388 c-201 -402 -442 -783 -643 -1016 -85 -98 -322 -339
-380 -386 -45 -36 -54 -39 -110 -39 -78 0 -143 28 -158 67 -12 31 -4 113 14
155 7 14 57 66 112 113 55 48 141 126 191 174 177 169 155 154 197 136 20 -8
65 -15 99 -15 174 0 282 169 211 332 l-16 38 48 52 c27 29 85 91 129 138 45
47 148 158 230 248 82 89 150 162 152 162 2 0 -32 -72 -76 -159z m-604 -456
c62 -40 83 -137 44 -200 -38 -62 -134 -84 -197 -45 -100 61 -84 213 27 259 33
14 94 7 126 -14z"/>
<path d="M4322 3577 c-29 -89 -71 -202 -92 -250 l-38 -88 29 -72 c45 -107 94
-278 115 -397 29 -160 26 -493 -4 -653 -123 -647 -572 -1182 -1184 -1411 -142
-53 -273 -83 -443 -102 -314 -34 -610 3 -885 111 l-90 36 -165 -142 c-91 -79
-165 -146 -165 -149 0 -19 249 -130 405 -179 233 -75 440 -106 700 -105 223 1
370 20 578 74 453 116 898 404 1191 768 139 173 297 456 369 662 94 266 131
487 131 780 -1 438 -101 796 -327 1178 -33 56 -63 102 -66 102 -3 0 -30 -73
-59 -163z m-57 -1990 c17 -13 16 -18 -26 -96 -35 -67 -41 -84 -29 -91 20 -13
27 -6 61 63 38 76 33 71 58 57 21 -11 21 -11 -14 -81 -20 -38 -33 -74 -30 -79
14 -23 33 -5 73 75 24 47 49 85 56 85 7 0 20 -6 31 -13 17 -13 14 -22 -54
-150 l-72 -137 -109 55 c-60 30 -111 58 -114 63 -7 12 123 262 137 262 7 0 21
-6 32 -13z m-116 -322 c8 -9 -63 -86 -85 -91 -29 -8 -64 -49 -64 -77 0 -29 39
-67 67 -67 31 0 73 45 73 79 1 30 62 107 77 98 17 -10 22 -56 11 -96 -23 -83
-127 -181 -192 -181 -36 0 -79 23 -105 56 -25 31 -28 89 -7 138 34 81 141 163
196 150 14 -3 27 -7 29 -9z m-220 -332 c82 -106 82 -106 15 -155 l-40 -29 -98
21 c-53 12 -101 20 -106 18 -5 -2 13 -32 40 -67 l49 -64 -42 -33 -42 -33 -23
27 c-12 15 -49 61 -81 103 l-59 76 51 40 52 40 105 -23 c58 -12 107 -21 109
-19 2 2 -19 33 -47 68 l-51 64 37 31 c20 17 42 31 47 31 6 0 43 -43 84 -96z
m-365 -317 l89 -57 -49 -24 c-44 -20 -51 -21 -72 -8 -20 12 -29 11 -97 -19
-60 -27 -74 -38 -77 -58 -2 -18 -15 -30 -48 -46 -41 -20 -45 -20 -48 -5 -3 16
35 281 41 287 1 2 23 12 47 23 l44 19 40 -27 c23 -16 81 -54 130 -85z m-568
-126 c14 -67 22 -90 34 -90 8 0 52 9 97 19 l82 19 6 -30 c4 -16 5 -31 3 -33
-5 -5 -291 -66 -293 -63 -5 6 -57 250 -53 252 7 6 93 22 99 19 4 -1 15 -43 25
-93z m161 -186 c-3 -3 -12 -4 -19 -1 -8 3 -5 6 6 6 11 1 17 -2 13 -5z"/>
<path d="M3374 616 c-3 -8 -4 -26 -2 -40 l3 -25 38 17 39 17 -31 23 c-35 26
-40 27 -47 8z"/>
<path d="M999 1659 c-139 -122 -314 -273 -386 -336 -73 -64 -133 -119 -133
-124 0 -12 111 -139 122 -139 5 0 96 75 201 167 106 92 279 243 385 336 l193
169 -57 66 c-32 37 -60 70 -64 75 -3 4 -121 -92 -261 -214z"/>
<path d="M1494 1598 c-72 -62 -280 -243 -462 -402 l-332 -289 32 -36 c17 -20
46 -53 65 -74 l34 -38 107 94 c59 51 268 234 465 406 l358 312 -62 69 c-34 39
-65 70 -68 70 -4 0 -66 -51 -137 -112z"/>
<path d="M1644 1237 c-369 -323 -679 -593 -688 -599 -10 -7 11 -36 81 -116
l38 -42 385 335 c212 184 385 339 385 345 0 14 -108 140 -120 139 -5 0 -42
-28 -81 -62z"/>
</g>
</svg>
